<?xml version="1.0" encoding="utf-8"?>
<!-- Generator: Adobe Illustrator 22.1.0, SVG Export Plug-In . SVG Version: 6.00 Build 0)  -->
<svg version="1.1" id="Layer_1" xmlns="http://www.w3.org/2000/svg" xmlns:xlink="http://www.w3.org/1999/xlink" x="0px" y="0px"
	 viewBox="0 0 578 582" style="enable-background:new 0 0 578 582;" xml:space="preserve">
<style type="text/css">
	.st0{fill:#7F7F7E;}
	.st1{fill:#FFD7A3;}
	.st2{fill:#9D6E48;}
	.st3{fill:#8D5F3D;}
	.st4{fill:#FDC88E;}
	.st5{fill:#FFE1B2;}
	.st6{fill:#623F33;}
	.st7{fill:#E4B07B;}
	.st8{fill:#FF6473;}
	.st9{fill:#F05467;}
	.st10{fill:#BD445A;}
	.st11{fill:#FFFFFF;}
</style>
<circle class="st0" cx="289.5" cy="290" r="280"/>
<g>
	<path class="st1" d="M428.8,423c-1.8-13.1-9.9-24.6-21.8-30.5l-17.2-8.6c-2.6-1.3-5.5-0.1-6.8,2.3l-8.7-3.2
		c59.9-16.3,91.6-45,91.6-45c-31.5-61.5-23-155-48-208s-72-72-128-72s-103,19-128,72s-16.5,146.5-48,208c0,0,31.8,28.7,91.6,45
		l-8.7,3.2c-1.2-2.4-4.2-3.6-6.7-2.3l-15.7,7.9c-13.4,6.7-21.6,18.1-23.3,31.3l-0.4,2.9c0,0,0,0,0,0l-9.2,68.9
		c-1.9,14.4,9.3,27.2,23.8,27.2h249.2c14.5,0,25.7-12.8,23.8-27.2L428.8,423z"/>
	<g>
		<path class="st2" d="M418,130c-25-53-72-72-128-72s-103,19-128,72s-16.5,146.5-48,208c0,0,62,56,176,56s176-56,176-56
			C434.5,276.5,443,183,418,130z"/>
	</g>
	<path class="st3" d="M242,201c0-56,20.9-108.3,63.1-142.4c-5-0.3-10-0.6-15.1-0.6c-56,0-103,19-128,72s-16.5,146.5-48,208
		c0,0,45.4,39.9,128,52.3C242,390.3,242,245,242,201z"/>
	<g>
		<path class="st1" d="M429.2,425.9c-2-14.7-11.9-27.1-25.8-32.3l-54.4-20c-6.5-2.2-10.9-8.3-10.9-15.2V306h-96v52.5
			c0,6.9-4.4,13-10.9,15.2l-54.4,20c-13.9,5.1-23.9,17.5-25.8,32.3l-9.2,68.9c-1.9,14.4,9.3,27.2,23.8,27.2h249.2
			c14.5,0,25.7-12.8,23.8-27.2L429.2,425.9z"/>
		<path class="st4" d="M242,358.5c0,0.4,0,0.8,0,1.2c0,0.2,0,0.4-0.1,0.6c0,0.2,0,0.3-0.1,0.5c0,0.3-0.1,0.6-0.2,0.9c0,0,0,0,0,0
			c-0.9,4.4-3.6,8.2-7.4,10.5c66.9,11.6,103.8-39.5,103.8-39.5l-96-0.7V358.5L242,358.5L242,358.5z"/>
	</g>
	<path class="st5" d="M402,218v-16c0-22.1-17.9-40-40-40H218c-22.1,0-40,17.9-40,40v16c-13.3,0-24,10.7-24,24c0,13.3,10.7,24,24,24
		v8c0,19.4,11.7,36.9,29.5,44.3l51.7,21.5c9.8,4.1,20.2,6.2,30.8,6.2l0,0c10.6,0,21-2.1,30.8-6.2l51.7-21.5
		c17.9-7.5,29.5-24.9,29.5-44.3v-8c13.3,0,24-10.7,24-24S415.3,218,402,218z"/>
	<path class="st1" d="M360,185.6V165H202.8c-14.6,6-24.8,20.3-24.8,37v16c-13.3,0-24,10.7-24,24s10.7,24,24,24v8
		c0,19.4,11.7,36.9,29.5,44.3l51.7,21.5c2.5,1.1,5.1,2,7.7,2.7c-22.8-16.7-38.1-31.3-47-40.9c-6.5-7-10-16.1-10-25.6v-58.2
		C235.8,217.3,317.7,213.1,360,185.6z"/>
	<g>
		<path class="st6" d="M234,250L234,250c-4.4,0-8-3.6-8-8v-8c0-4.4,3.6-8,8-8l0,0c4.4,0,8,3.6,8,8v8C242,246.4,238.4,250,234,250z"
			/>
	</g>
	<g>
		<path class="st6" d="M346,250L346,250c-4.4,0-8-3.6-8-8v-8c0-4.4,3.6-8,8-8l0,0c4.4,0,8,3.6,8,8v8C354,246.4,350.4,250,346,250z"
			/>
	</g>
	<g>
		<g>
			<path class="st7" d="M290,306.2c-14.2,0-27.5-3.5-36.5-9.6c-3.7-2.5-4.6-7.5-2.1-11.1c2.5-3.6,7.5-4.6,11.1-2.1
				c6.3,4.3,16.6,6.8,27.5,6.8s21.2-2.6,27.5-6.8c3.7-2.5,8.6-1.5,11.1,2.1c2.5,3.7,1.5,8.6-2.1,11.1
				C317.5,302.7,304.2,306.2,290,306.2z"/>
		</g>
	</g>
	<path class="st2" d="M194,202c0,0,51,5,80-8c4.1-1.8,16-28,16-28v36c0,0,36.8-1.9,75-17.3V156H188.6C192.2,174.3,194,202,194,202z"
		/>
	<g>
		<path class="st8" d="M407,392.5l-17.2-8.6c-2.9-1.5-6.3,0.2-7.2,3.4C371.5,428,334.3,458,290,458c-44.3,0-81.6-30-92.6-70.8
			c-0.9-3.1-4.2-4.8-7.1-3.3l-15.7,7.9c-13.4,6.7-21.6,18.1-23.3,31.3l-9.6,71.8c-1.9,14.4,9.3,27.2,23.8,27.2h249.2
			c14.5,0,25.7-12.8,23.8-27.2l-9.6-71.8C427,409.9,418.9,398.5,407,392.5z"/>
	</g>
	<g>
		<path class="st9" d="M154.8,411.1c-1.8,3.7-3.1,7.7-3.6,11.9l-9.6,71.8c-1.9,14.4,9.3,27.2,23.8,27.2H202v-32
			c0-10.4-3.4-20.5-9.6-28.8L154.8,411.1z"/>
	</g>
	<g>
		<path class="st9" d="M425.2,411.1c1.8,3.7,3.1,7.7,3.6,11.9l9.6,71.8c1.9,14.4-9.3,27.2-23.8,27.2H378v-32
			c0-10.4,3.4-20.5,9.6-28.8L425.2,411.1z"/>
	</g>
	<g>
		<g>
			<path class="st10" d="M390,161.6c0,10.8-21.7,19.5-32.5,19.5s-19.5-8.7-19.5-19.5s8.7-19.5,19.5-19.5S390,150.9,390,161.6z"/>
		</g>
	</g>
	<g>
		<g>
			<path class="st10" d="M390,161.6c0-10.8,21.7-19.5,32.5-19.5s19.5,8.7,19.5,19.5s-8.7,19.5-19.5,19.5S390,172.4,390,161.6z"/>
		</g>
	</g>
	<g>
		<g>
			<path class="st8" d="M390,161.6c9.3,5.4,6,28.6,0.6,37.9c-5.4,9.3-17.3,12.5-26.6,7.1s-12.5-17.3-7.1-26.6
				C362.2,170.7,380.7,156.3,390,161.6z"/>
		</g>
	</g>
	<g>
		<g>
			<path class="st8" d="M390,161.6c-9.3-5.4-6-28.6-0.6-37.9s17.3-12.5,26.6-7.1s12.5,17.3,7.1,26.6
				C417.8,152.6,399.3,167,390,161.6z"/>
		</g>
	</g>
	<g>
		<g>
			<path class="st9" d="M390,161.6c-9.3,5.4-6,28.6-0.6,37.9s17.3,12.5,26.6,7.1s12.5-17.3,7.1-26.6
				C417.8,170.7,399.3,156.3,390,161.6z"/>
		</g>
	</g>
	<g>
		<g>
			<path class="st9" d="M390,161.6c9.3-5.4,6-28.6,0.6-37.9c-5.4-9.3-17.3-12.5-26.6-7.1s-12.5,17.3-7.1,26.6
				C362.2,152.6,380.7,167,390,161.6z"/>
		</g>
	</g>
	<g>
		<g>
			<circle class="st11" cx="390" cy="161.6" r="13"/>
		</g>
	</g>
	<path class="st3" d="M188.5,156c3.6,18.3,5.5,46,5.5,46s23.1,2.2,47-0.2c0-0.3,0-0.5,0-0.8c0-15.4,1.7-30.5,5-45H188.5z"/>
</g>
</svg>
