<?xml version="1.0" encoding="utf-8"?>
<!-- Generator: Adobe Illustrator 22.1.0, SVG Export Plug-In . SVG Version: 6.00 Build 0)  -->
<svg version="1.1" id="Layer_1" xmlns="http://www.w3.org/2000/svg" xmlns:xlink="http://www.w3.org/1999/xlink" x="0px" y="0px"
	 viewBox="0 0 578 576" style="enable-background:new 0 0 578 576;" xml:space="preserve">
<style type="text/css">
	.st0{fill:#7F7F7E;}
	.st1{fill:#FFD7A3;}
	.st2{fill:#FDC88E;}
	.st3{fill:#734A3E;}
	.st4{fill:#623F33;}
	.st5{fill:#FFE1B2;}
	.st6{fill:#E4B07B;}
	.st7{fill:#00BEA4;}
	.st8{fill:#00AB9A;}
</style>
<circle class="st0" cx="287.5" cy="288" r="280"/>
<g>
	<path class="st1" d="M438.6,493l-10.1-81c-1.5-12.2-9.9-22.5-21.6-26.4l-39-13c-5.4-1.8-11.2-0.6-15.4,2.9l-11.5-3.8
		c-6.5-2.2-10.9-8.3-10.9-15.2v-25.8l34.5-14.4c17.9-7.5,29.5-24.9,29.5-44.3v-8c13.3,0,24-10.7,24-24c0-6-2.2-11.4-5.8-15.6
		C419,199.6,438.1,121.4,418,88l8-32c0,0-84,2-128,16l16-16c0,0-112.5,0-136,40l0,0c0,0-40-0.3-40,48c0,17.7,9.9,61.9,14.1,80
		c-3.8,4.2-6.1,9.8-6.1,16c0,13.3,10.7,24,24,24v8c0,19.4,11.7,36.9,29.5,44.3l34.5,14.4v25.8c0,6.9-4.4,13-10.9,15.2l-11.5,3.8
		c-4.1-3.5-10-4.7-15.4-2.9l-39,13c-11.7,3.9-20.1,14.2-21.6,26.4l-10.1,81c-1.8,14.3,9.4,27,23.8,27h0.2h265.2h0.2
		C429.2,520,440.4,507.3,438.6,493z"/>
	<g>
		<path class="st2" d="M330,330.7l-96,0v25.8c0,5.8-3.2,10.8-8,13.7C293.1,381.9,330,330.7,330,330.7z"/>
	</g>
	<g>
		<path class="st3" d="M154,232c0,0-16-65.5-16-88c0-48.3,40-48,40-48l0,0c23.5-40,136-40,136-40l-16,16c44-14,128-16,128-16l-8,32
			c24,40-8,144-8,144H154z"/>
	</g>
	<g>
		<path class="st4" d="M314,56c0,0-112.5,0-136,40l0,0c0,0-40-0.3-40,48c0,22.5,16,88,16,88s166.3-74.3,272-176c0,0-84,2-128,16
			L314,56z"/>
	</g>
	<path class="st5" d="M394,216v-16c0-22.1-17.9-40-40-40H210c-22.1,0-40,17.9-40,40v16c-13.3,0-24,10.7-24,24s10.7,24,24,24v8
		c0,19.4,11.7,36.9,29.5,44.3l51.7,21.5c9.8,4.1,20.2,6.2,30.8,6.2l0,0c10.6,0,21-2.1,30.8-6.2l51.7-21.5
		c17.9-7.5,29.5-24.9,29.5-44.3v-8c13.3,0,24-10.7,24-24S407.3,216,394,216z"/>
	<g>
		<path class="st4" d="M226,248L226,248c-4.4,0-8-3.6-8-8v-8c0-4.4,3.6-8,8-8l0,0c4.4,0,8,3.6,8,8v8C234,244.4,230.4,248,226,248z"
			/>
	</g>
	<g>
		<path class="st4" d="M338,248L338,248c-4.4,0-8-3.6-8-8v-8c0-4.4,3.6-8,8-8l0,0c4.4,0,8,3.6,8,8v8C346,244.4,342.4,248,338,248z"
			/>
	</g>
	<g>
		<g>
			<path class="st6" d="M282,304.2c-14.2,0-27.5-3.5-36.5-9.6c-3.7-2.5-4.6-7.5-2.1-11.1c2.5-3.6,7.5-4.6,11.1-2.1
				c6.3,4.3,16.6,6.8,27.5,6.8s21.2-2.6,27.5-6.8c3.7-2.5,8.6-1.5,11.1,2.1c2.5,3.7,1.5,8.6-2.1,11.1
				C309.5,300.7,296.2,304.2,282,304.2z"/>
		</g>
	</g>
	<g>
		<path class="st7" d="M438.6,493l-10.1-81c-1.5-12.2-9.9-22.5-21.6-26.4l-39-13c-6.8-2.3-14.5,0.2-18.3,6.2
			C335.3,401.2,310.4,416,282,416s-53.3-14.8-67.5-37.2c-3.8-6.1-11.5-8.5-18.3-6.2l-39,13c-11.7,3.9-20.1,14.2-21.6,26.4l-10.1,81
			c-1.8,14.3,9.4,27,23.8,27h265.6C429.2,520,440.4,507.3,438.6,493z"/>
	</g>
	<g>
		<path class="st8" d="M142.2,396.2c-3.6,4.5-5.9,9.9-6.7,15.8l-10.1,81c-1.8,14.3,9.4,27,23.8,27H194v-52.1c0-7.7-2.8-15.1-7.8-21
			L142.2,396.2z"/>
	</g>
	<g>
		<path class="st8" d="M421.8,396.2c3.6,4.5,5.9,9.9,6.7,15.8l10.1,81c1.8,14.3-9.4,27-23.8,27H370v-52.1c0-7.7,2.8-15.1,7.8-21
			L421.8,396.2z"/>
	</g>
	<path class="st1" d="M212,299.7c-6.5-7-10-16.1-10-25.6v-90.7c25.5-1.9,105.7-8.9,152-23.4H210c-2.8,0-5.4,0.3-8,0.9v-0.1
		c-18.3,3.7-32,19.8-32,39.2v16c-13.3,0-24,10.7-24,24s10.7,24,24,24v8c0,19.4,11.7,36.9,29.5,44.3l51.7,21.5c2.5,1.1,5.1,2,7.7,2.7
		C236.1,323.9,220.9,309.3,212,299.7z"/>
</g>
</svg>
